<svg width="80" height="80" viewBox="0 0 80 80" fill="none" xmlns="http://www.w3.org/2000/svg">
<path fill-rule="evenodd" clip-rule="evenodd" d="M71.1777 11.1784C71.8286 10.5276 71.8286 9.47228 71.1777 8.82141C70.5268 8.17053 69.4716 8.17053 68.8207 8.82141L60.9445 16.6976C55.6387 12.5161 47.9241 12.8728 43.0292 17.7677L38.8038 21.9932C37.6618 23.1352 37.6618 24.9867 38.8038 26.1287L53.7876 41.1125C54.9296 42.2545 56.7811 42.2545 57.9231 41.1125L62.1485 36.8871C67.0149 32.0207 67.3958 24.3675 63.2914 19.0648L71.1777 11.1784ZM59.7915 34.53L55.8553 38.4662L41.45 24.0609L45.3862 20.1248C49.3641 16.1468 55.8136 16.1468 59.7915 20.1248C63.7694 24.1027 63.7694 30.5521 59.7915 34.53Z" fill="#66A367"/>
<path fill-rule="evenodd" clip-rule="evenodd" d="M34.7824 42.4306L39.5353 37.6777C41.2202 35.9928 41.2202 33.2611 39.5353 31.5762C37.8504 29.8913 35.1186 29.8913 33.4337 31.5762L28.6809 36.329L27.5734 35.2215C25.7794 33.4276 22.8707 33.4276 21.0768 35.2215C19.6307 36.6676 19.3502 38.8379 20.2354 40.5649L17.603 43.1973C12.7086 48.0917 12.3514 55.8051 16.5315 61.111L8.82116 68.8213C8.17029 69.4722 8.17029 70.5274 8.82116 71.1783C9.47204 71.8292 10.5273 71.8292 11.1782 71.1783L18.8983 63.4582C24.2011 67.564 31.8554 67.1835 36.7223 62.3166L39.5286 59.5103C41.1352 60.0599 42.9858 59.6939 44.2674 58.4122C46.0614 56.6183 46.0614 53.7096 44.2674 51.9156L43.9003 51.5484L48.6531 46.7956C50.338 45.1107 50.338 42.3789 48.6531 40.694C46.9682 39.0091 44.2365 39.0091 42.5516 40.694L37.7987 45.4469L34.7824 42.4306ZM32.4254 40.0736L37.1783 35.3207C37.5614 34.9376 37.5614 34.3163 37.1783 33.9332C36.7951 33.55 36.1739 33.55 35.7908 33.9332L31.0379 38.6861L32.4254 40.0736ZM40.1557 47.8039L41.5432 49.1914L46.2961 44.4385C46.6793 44.0554 46.6793 43.4342 46.2961 43.051C45.913 42.6679 45.2917 42.6679 44.9086 43.051L40.1557 47.8039ZM39.1377 55.1079L39.1591 55.0864L40.1279 56.0552C40.6201 56.5475 41.4182 56.5475 41.9104 56.0552C42.4027 55.563 42.4027 54.7649 41.9104 54.2727L25.2163 37.5786C24.7241 37.0863 23.926 37.0863 23.4338 37.5786C22.9415 38.0708 22.9415 38.8689 23.4338 39.3611L24.6189 40.5463L24.5975 40.5677L39.1377 55.1079ZM34.3653 59.9596L36.8203 57.5045L22.415 43.0993L19.96 45.5543C15.9821 49.5322 15.9821 55.9817 19.96 59.9596C23.9379 63.9375 30.3874 63.9375 34.3653 59.9596Z" fill="#4195B9"/>
</svg>
