<svg width="16" height="16" viewBox="0 0 16 16" fill="none" xmlns="http://www.w3.org/2000/svg">
<g clip-path="url(#clip0_395_27630)">
<path fill-rule="evenodd" clip-rule="evenodd" d="M8.00033 0.666016C12.0505 0.666016 15.3337 3.94916 15.3337 7.99935C15.3337 12.0495 12.0505 15.3327 8.00033 15.3327C3.95014 15.3327 0.666992 12.0495 0.666992 7.99935C0.666992 3.94916 3.95014 0.666016 8.00033 0.666016ZM8.00033 1.99935C4.68652 1.99935 2.00033 4.68554 2.00033 7.99935C2.00033 11.3132 4.68652 13.9993 8.00033 13.9993C11.3141 13.9993 14.0003 11.3132 14.0003 7.99935C14.0003 4.68554 11.3141 1.99935 8.00033 1.99935ZM8.00033 10.666C8.36833 10.666 8.66699 10.9647 8.66699 11.3327C8.66699 11.6744 8.40947 11.9563 8.07804 11.9949L8.00033 11.9993C7.63233 11.9993 7.33366 11.7007 7.33366 11.3327C7.33366 10.9647 7.63233 10.666 8.00033 10.666ZM8.00033 3.99935C8.36852 3.99935 8.66699 4.29783 8.66699 4.66602V9.33268C8.66699 9.70087 8.36852 9.99935 8.00033 9.99935C7.63214 9.99935 7.33366 9.70087 7.33366 9.33268V4.66602C7.33366 4.29783 7.63214 3.99935 8.00033 3.99935Z" fill="#ED7125"/>
</g>
<defs>
<clipPath id="clip0_395_27630">
<rect width="16" height="16" fill="white"/>
</clipPath>
</defs>
</svg>
