<svg width="24" height="24" viewBox="0 0 24 24" fill="none" xmlns="http://www.w3.org/2000/svg">
<g clip-path="url(#clip0_2187_17344)">
<path fill-rule="evenodd" clip-rule="evenodd" d="M12 1C18.0753 1 23 5.92472 23 12C23 18.0753 18.0753 23 12 23C5.92472 23 1 18.0753 1 12C1 5.92472 5.92472 1 12 1ZM12 3C7.02928 3 3 7.02928 3 12C3 16.9707 7.02928 21 12 21C16.9707 21 21 16.9707 21 12C21 7.02928 16.9707 3 12 3ZM12 16C12.552 16 13 16.448 13 17C13 17.5126 12.6137 17.9355 12.1166 17.9933L12 18C11.448 18 11 17.552 11 17C11 16.448 11.448 16 12 16ZM12 6C12.5523 6 13 6.44772 13 7V14C13 14.5523 12.5523 15 12 15C11.4477 15 11 14.5523 11 14V7C11 6.44772 11.4477 6 12 6Z" fill="#ED7125"/>
</g>
<defs>
<clipPath id="clip0_2187_17344">
<rect width="24" height="24" fill="white"/>
</clipPath>
</defs>
</svg>
