<svg width="76" height="76" viewBox="0 0 76 76" fill="none" xmlns="http://www.w3.org/2000/svg">
<path fill-rule="evenodd" clip-rule="evenodd" d="M38 0C58.9868 0 76 17.0132 76 38C76 58.9868 58.9868 76 38 76C17.0132 76 0 58.9868 0 38C0 17.0132 17.0132 0 38 0ZM38 2C18.1177 2 2 18.1177 2 38C2 57.8823 18.1177 74 38 74C57.8823 74 74 57.8823 74 38C74 18.1177 57.8823 2 38 2ZM38 51C39.1046 51 40 51.8954 40 53C40 54.1046 39.1046 55 38 55C36.8954 55 36 54.1046 36 53C36 51.8954 36.8954 51 38 51ZM38 18C38.5523 18 39 18.4477 39 19V45C39 45.5523 38.5523 46 38 46C37.4477 46 37 45.5523 37 45V19C37 18.4477 37.4477 18 38 18Z" fill="#ED7125"/>
</svg>
