<svg width="16" height="16" viewBox="0 0 16 16" fill="none" xmlns="http://www.w3.org/2000/svg">
<g clip-path="url(#clip0_395_27696)">
<path fill-rule="evenodd" clip-rule="evenodd" d="M8.00033 0.666016C12.0503 0.666016 15.3337 3.94961 15.3337 7.99935C15.3337 12.0491 12.0503 15.3327 8.00033 15.3327C3.95036 15.3327 0.666992 12.0491 0.666992 7.99935C0.666992 3.94961 3.95036 0.666016 8.00033 0.666016ZM8.00033 1.99935C4.68676 1.99935 2.00033 4.68596 2.00033 7.99935C2.00033 11.3127 4.68676 13.9993 8.00033 13.9993C11.3139 13.9993 14.0003 11.3127 14.0003 7.99935C14.0003 4.68596 11.3139 1.99935 8.00033 1.99935ZM10.467 4.93268C10.6879 4.63813 11.1058 4.57843 11.4003 4.79935C11.6949 5.02026 11.7546 5.43813 11.5337 5.73268L7.53366 11.066C7.27548 11.4103 6.76365 11.4234 6.48818 11.0928L4.82151 9.0928C4.5858 8.80995 4.62402 8.38958 4.90687 8.15387C5.18972 7.91816 5.6101 7.95637 5.84581 8.23923L6.97279 9.59161L10.467 4.93268Z" fill="#66A367"/>
</g>
<defs>
<clipPath id="clip0_395_27696">
<rect width="16" height="16" fill="white"/>
</clipPath>
</defs>
</svg>
