<svg width="24" height="24" viewBox="0 0 24 24" fill="none" xmlns="http://www.w3.org/2000/svg">
<g clip-path="url(#clip0_2187_21275)">
<path fill-rule="evenodd" clip-rule="evenodd" d="M12 1C18.075 1 23 5.92539 23 12C23 18.0746 18.075 23 12 23C5.92505 23 1 18.0746 1 12C1 5.92539 5.92505 1 12 1ZM12 3C7.02965 3 3 7.02992 3 12C3 16.9701 7.02965 21 12 21C16.9704 21 21 16.9701 21 12C21 7.02992 16.9704 3 12 3ZM15.7 7.4C16.0314 6.95817 16.6582 6.86863 17.1 7.2C17.5418 7.53137 17.6314 8.15817 17.3 8.6L11.3 16.6C10.9127 17.1164 10.145 17.136 9.73178 16.6402L7.23178 13.6402C6.87821 13.2159 6.93554 12.5853 7.35982 12.2318C7.78409 11.8782 8.41466 11.9355 8.76822 12.3598L10.4587 14.3884L15.7 7.4Z" fill="#66A367"/>
</g>
<defs>
<clipPath id="clip0_2187_21275">
<rect width="24" height="24" fill="white"/>
</clipPath>
</defs>
</svg>
